<?xml version="1.0" standalone="no"?>
<!DOCTYPE svg PUBLIC "-//W3C//DTD SVG 20010904//EN"
 "http://www.w3.org/TR/2001/REC-SVG-20010904/DTD/svg10.dtd">
<svg version="1.0" xmlns="http://www.w3.org/2000/svg"
 width="500.000000pt" height="500.000000pt" viewBox="0 0 500.000000 500.000000"
 preserveAspectRatio="xMidYMid meet">
<metadata>
Created by potrace 1.11, written by Peter Selinger 2001-2013
</metadata>
<g transform="translate(0.000000,500.000000) scale(0.100000,-0.100000)"
fill="#000000" stroke="none">
<path d="M0 2500 l0 -2500 2500 0 2500 0 0 2500 0 2500 -2500 0 -2500 0 0
-2500z m1553 936 c138 -38 234 -113 283 -220 29 -63 54 -185 54 -262 l0 -54
-215 0 -215 0 0 51 c0 74 -19 126 -57 159 -28 25 -43 30 -83 30 -69 0 -114
-40 -130 -115 -18 -86 -6 -121 64 -191 65 -64 183 -130 346 -194 184 -72 285
-174 331 -334 17 -60 18 -49 18 537 l1 597 353 0 c193 0 384 -5 422 -10 224
-29 372 -136 426 -309 26 -84 28 -238 4 -331 -33 -128 -107 -225 -215 -278
l-58 -30 39 -5 c59 -8 126 -52 160 -105 55 -87 61 -124 68 -412 6 -223 9 -270
24 -297 9 -17 21 -35 27 -38 7 -4 10 296 10 904 l0 911 538 -2 537 -3 0 -200
0 -200 -297 -3 -298 -2 0 -155 0 -155 270 0 270 0 0 -180 0 -180 -270 0 -270
0 0 -190 0 -190 300 0 300 0 -2 -192 -3 -193 -766 0 c-633 0 -769 2 -782 14
-28 23 -36 78 -42 301 -9 342 -11 358 -50 397 -33 33 -34 33 -129 33 l-96 0 0
-375 0 -375 -232 2 -233 3 -3 215 c-4 209 -4 213 -17 153 -43 -197 -183 -332
-396 -380 -114 -26 -379 -23 -483 5 -214 59 -307 188 -330 460 l-7 82 220 0
221 0 0 -47 c0 -70 17 -120 54 -160 28 -31 40 -37 88 -41 97 -8 151 40 164
146 16 127 -33 186 -231 283 -253 123 -412 244 -468 355 -44 87 -61 268 -36
386 25 118 99 229 204 303 121 87 200 106 410 101 97 -2 170 -9 208 -20z"/>
<path d="M2400 2865 l0 -228 83 5 c134 7 196 56 218 172 18 97 -3 185 -57 237
-35 34 -36 34 -140 37 l-104 4 0 -227z"/>
</g>
</svg>
