<?xml version="1.0" encoding="UTF-8"?>
<svg width="112px" height="81px" viewBox="0 0 112 81" version="1.1" xmlns="http://www.w3.org/2000/svg" xmlns:xlink="http://www.w3.org/1999/xlink">
    <!-- Generator: Sketch 42 (36781) - http://www.bohemiancoding.com/sketch -->
    <title>homepage-hero-logo</title>
    <desc>Created with Sketch.</desc>
    <defs>
        <path d="M0.171763522,38.6679106 L12.647839,38.6679106 C12.647839,38.6679106 12.0172981,46.062986 17.3729711,46.062986 C22.7292981,46.062986 21.8469333,39.545535 21.8469333,39.545535 C21.8469333,39.545535 21.5951094,36.3492646 17.5620025,34.5315607 C13.5295497,32.7145073 1.91490818,27.564563 0.612618868,21.0575212 C-0.885242767,13.5707148 -0.0172679245,6.9882064 7.54398994,2.19347553 C7.54398994,2.19347553 10.3160151,0.000390344441 17.3729711,0.000390344441 C24.1781031,0.000390344441 28.7776503,1.69253349 31.2985057,5.01371411 C33.8187069,8.3355453 34.0705308,13.4744299 34.0705308,16.1691076 L21.7206943,16.1691076 C21.7206943,16.1691076 22.4140277,9.15006403 17.5620025,9.15006403 C12.7106314,9.15006403 13.2149333,15.2290281 13.7185811,16.1066525 C14.222883,16.9836264 15.4826566,20.1798968 26.5727195,24.2537916 C26.5727195,24.2537916 35.8875874,27.0532118 35.8875874,38.2086053 C35.8875874,49.3633483 30.1008704,55.1293862 17.0792855,55.1293862 C4.05704654,55.1293862 0.171763522,49.8233042 0.171763522,38.6679106 L0.171763522,38.6679106 Z" id="path-1"></path>
        <filter x="-50%" y="-50%" width="200%" height="200%" filterUnits="objectBoundingBox" id="filter-2">
            <feOffset dx="0" dy="0" in="SourceAlpha" result="shadowOffsetOuter1"></feOffset>
            <feGaussianBlur stdDeviation="2" in="shadowOffsetOuter1" result="shadowBlurOuter1"></feGaussianBlur>
            <feColorMatrix values="0 0 0 0 0.125490196   0 0 0 0 0.141176471   0 0 0 0 0.168627451  0 0 0 0.15 0" type="matrix" in="shadowBlurOuter1"></feColorMatrix>
        </filter>
        <polygon id="path-3" points="72.6530918 54.1266564 72.6530918 0.731440424 103.824966 0.731440424 103.824966 12.3871254 86.4321107 12.3884266 86.4314566 21.4782474 102.259079 21.5010175 102.28001 31.9303704 86.3771673 31.9505382 86.3837082 43.0968237 103.828891 43.0981248 103.824966 54.1266564"></polygon>
        <filter x="-50%" y="-50%" width="200%" height="200%" filterUnits="objectBoundingBox" id="filter-4">
            <feOffset dx="0" dy="0" in="SourceAlpha" result="shadowOffsetOuter1"></feOffset>
            <feGaussianBlur stdDeviation="2" in="shadowOffsetOuter1" result="shadowBlurOuter1"></feGaussianBlur>
            <feColorMatrix values="0 0 0 0 0.125490196   0 0 0 0 0.141176471   0 0 0 0 0.168627451  0 0 0 0.15 0" type="matrix" in="shadowBlurOuter1"></feColorMatrix>
        </filter>
        <path d="M52.4464151,23.8358628 L48.8692075,23.8358628 L48.8692075,10.6747494 L53.5707925,10.6747494 C53.5707925,10.6747494 57.9512201,10.5628507 57.9512201,17.192851 C57.9512201,23.8228513 52.4464151,23.8358628 52.4464151,23.8358628 M71.4666415,52.3615839 C70.9309434,51.0454726 70.5842767,51.5464146 70.6470692,38.8556663 C70.6470692,38.8556663 71.0146667,28.3482445 62.4035975,28.3482445 C62.4035975,28.3482445 71.4771069,26.9273908 71.4771069,14.6861891 C71.4771069,2.44433689 60.8076226,0.731375367 55.3466415,0.731375367 L35.887522,0.731375367 L35.887522,54.1265914 L49.5501132,54.1265914 L49.5501132,32.431898 L53.6976855,32.431898 C53.6976855,32.431898 57.3206792,32.1501994 57.3206792,36.5682479 C57.3206792,40.9869469 57.7935849,50.3870916 57.8563774,51.5464146 C57.9198239,52.7063882 58.5497107,54.1265914 59.8729308,54.1265914 L73.8606038,54.1265914 C73.8606038,54.1265914 72.0023396,53.6776953 71.4666415,52.3615839" id="path-5"></path>
        <filter x="-50%" y="-50%" width="200%" height="200%" filterUnits="objectBoundingBox" id="filter-6">
            <feOffset dx="0" dy="0" in="SourceAlpha" result="shadowOffsetOuter1"></feOffset>
            <feGaussianBlur stdDeviation="2" in="shadowOffsetOuter1" result="shadowBlurOuter1"></feGaussianBlur>
            <feColorMatrix values="0 0 0 0 0.125490196   0 0 0 0 0.141176471   0 0 0 0 0.168627451  0 0 0 0.15 0" type="matrix" in="shadowBlurOuter1"></feColorMatrix>
        </filter>
        <path d="M4.56592704,5.53831464 C3.45593962,4.96580946 2.49704654,4.47202374 2.49704654,3.4922592 C2.49704654,2.2203869 3.54358742,2.08246519 3.9936,2.08246519 C4.4972478,2.08246519 4.85699623,2.19891795 5.0937761,2.43702806 C5.36914717,2.71482319 5.4986566,3.18713996 5.49015346,3.88130249 L5.48688302,4.13567695 L7.49624151,4.13567695 L7.50605283,3.89496454 C7.55445535,2.72263008 7.28497107,1.82418729 6.70479497,1.22370742 C6.13115975,0.629082726 5.25664403,0.327866933 4.10414088,0.327866933 C1.92210314,0.327866933 0.512543396,1.63161736 0.512543396,3.64969812 C0.512543396,5.63069616 2.09478239,6.44781719 3.49060629,7.1699544 C4.63133585,7.75872393 5.61639245,8.26812343 5.61639245,9.27391093 C5.61639245,10.3239375 5.0172478,10.8567576 3.83596478,10.8567576 C3.21850566,10.8567576 2.1817761,10.6264544 2.1817761,9.08589503 L2.1817761,8.50623353 L0.251562264,8.50623353 L0.245021384,8.75019881 C0.227361006,9.35132925 0.186153459,10.7617738 1.11365031,11.7025039 C1.70821635,12.3055861 2.59843019,12.6113559 3.75747421,12.6113559 L3.82026667,12.6113559 C6.25805283,12.6113559 7.6008956,11.4038904 7.6008956,9.21145582 C7.6008956,7.10164412 5.98856855,6.27086104 4.56592704,5.53831464" id="path-7"></path>
        <filter x="-50%" y="-50%" width="200%" height="200%" filterUnits="objectBoundingBox" id="filter-8">
            <feOffset dx="0" dy="0" in="SourceAlpha" result="shadowOffsetOuter1"></feOffset>
            <feGaussianBlur stdDeviation="1" in="shadowOffsetOuter1" result="shadowBlurOuter1"></feGaussianBlur>
            <feColorMatrix values="0 0 0 0 0.125490196   0 0 0 0 0.141176471   0 0 0 0 0.168627451  0 0 0 0.15 0" type="matrix" in="shadowBlurOuter1"></feColorMatrix>
        </filter>
        <path d="M15.9939572,3.80577084 C15.4301333,3.80577084 14.6583094,3.89620064 14.1121459,4.59686891 C13.6575547,4.02046028 12.8634918,3.80577084 12.2453786,3.80577084 C11.4689761,3.80577084 10.8927245,4.00419593 10.4806491,4.42056333 L10.4806491,3.96255919 L8.58313962,3.96255919 L8.60734088,4.23514972 C8.65966792,4.84408705 8.68517736,5.37430492 8.68517736,5.85833202 L8.68517736,12.3764336 L10.4806491,12.3764336 L10.4806491,6.79906212 C10.4806491,6.65983927 10.4996176,6.17386045 10.7416302,5.77245625 C10.8744101,5.5629714 11.3224604,5.35738999 11.646234,5.35738999 C12.3624604,5.35738999 12.6548377,5.72951836 12.6548377,6.6416232 L12.6548377,12.3764336 L14.4503094,12.3764336 L14.4503094,6.79906212 C14.4503094,6.43213835 14.5431899,5.81018954 14.7989384,5.5981024 C15.0873912,5.36389573 15.1698063,5.35738999 15.6158943,5.35738999 C16.3321208,5.35738999 16.623844,5.72951836 16.623844,6.6416232 L16.623844,12.3764336 L18.4193157,12.3764336 L18.4193157,6.10945361 C18.4193157,5.05877649 17.9987371,3.80577084 15.9939572,3.80577084" id="path-9"></path>
        <filter x="-50%" y="-50%" width="200%" height="200%" filterUnits="objectBoundingBox" id="filter-10">
            <feOffset dx="0" dy="0" in="SourceAlpha" result="shadowOffsetOuter1"></feOffset>
            <feGaussianBlur stdDeviation="1" in="shadowOffsetOuter1" result="shadowBlurOuter1"></feGaussianBlur>
            <feColorMatrix values="0 0 0 0 0.125490196   0 0 0 0 0.141176471   0 0 0 0 0.168627451  0 0 0 0.15 0" type="matrix" in="shadowBlurOuter1"></feColorMatrix>
        </filter>
        <path d="M23.7487597,8.44625061 C23.772961,9.50538519 23.5924327,10.2437868 23.2110994,10.6419381 C22.9952503,10.8676873 22.7067975,10.9815377 22.3535899,10.9815377 C21.432634,10.9815377 21.3613384,10.0590237 21.3613384,9.77537343 C21.3613384,8.55099303 22.3045333,8.45405749 23.7448352,8.44625061 L23.7487597,8.44625061 Z M25.5350742,10.2457385 L25.5350742,6.43857903 C25.5350742,4.66706585 24.6075774,3.80570578 22.6996025,3.80570578 C20.7536906,3.80570578 19.8176906,4.63974174 19.754244,6.429471 L19.7450868,6.68970062 L21.6851119,6.68970062 L21.6596025,6.41515837 C21.6249358,6.05734263 21.7034264,5.76393373 21.8852629,5.56485806 C22.056634,5.37749273 22.3215396,5.27925605 22.6525082,5.27925605 C23.0135648,5.27925605 23.2712755,5.3631801 23.4393761,5.53558223 C23.7350239,5.83809917 23.757917,6.4119055 23.7467975,6.9661946 C22.3941434,6.94147279 21.0663447,7.06313014 20.2565836,7.84772246 C19.7974138,8.29271513 19.5652126,8.90945934 19.5652126,9.68104019 C19.5652126,11.6002337 20.3586214,12.5331569 21.9912252,12.5331569 C22.7643572,12.5331569 23.3451874,12.3028537 23.7709987,11.8175254 L23.7709987,12.3763685 L25.7345711,12.3763685 L25.6900931,12.0875137 C25.5874013,11.4252293 25.5350742,10.8052322 25.5350742,10.2457385 L25.5350742,10.2457385 Z" id="path-11"></path>
        <filter x="-50%" y="-50%" width="200%" height="200%" filterUnits="objectBoundingBox" id="filter-12">
            <feOffset dx="0" dy="0" in="SourceAlpha" result="shadowOffsetOuter1"></feOffset>
            <feGaussianBlur stdDeviation="1" in="shadowOffsetOuter1" result="shadowBlurOuter1"></feGaussianBlur>
            <feColorMatrix values="0 0 0 0 0.125490196   0 0 0 0 0.141176471   0 0 0 0 0.168627451  0 0 0 0.15 0" type="matrix" in="shadowBlurOuter1"></feColorMatrix>
        </filter>
        <path d="M34.7776,10.9188875 C33.8481409,10.9188875 33.8481409,10.5252902 33.8481409,10.0262998 L33.8481409,5.43584922 L35.5808201,5.43584922 L35.5808201,3.96294953 L33.8481409,3.96294953 L33.8481409,1.86354702 L32.0520151,1.86354702 L32.0520151,3.96294953 L31.4391346,3.96294953 L31.4391346,3.80551061 L31.1873107,3.80551061 C30.238883,3.80551061 29.5161157,3.8686163 28.9503296,4.5484662 L28.9503296,3.96294953 L27.1548579,3.96294953 L27.1548579,12.3761734 L28.9503296,12.3761734 L28.9503296,7.45718285 C28.9503296,5.56141002 30.112644,5.56141002 30.4946314,5.56141002 C30.6535748,5.56141002 30.8053233,5.58483069 30.9603421,5.60890193 L31.4391346,5.67395933 L31.4391346,5.43584922 L32.0520151,5.43584922 L32.0520151,10.809591 C32.0520151,11.5668592 32.4052226,12.4705066 34.0842667,12.4705066 C34.3557132,12.4705066 34.6232352,12.434725 34.8822541,12.4002446 C35.0477384,12.3781251 35.2132226,12.3566562 35.3787069,12.3442952 L35.6122164,12.3273803 L35.6122164,10.8271565 L35.0614742,10.8902622 C34.9300025,10.905876 34.8325434,10.9188875 34.7776,10.9188875" id="path-13"></path>
        <filter x="-50%" y="-50%" width="200%" height="200%" filterUnits="objectBoundingBox" id="filter-14">
            <feOffset dx="0" dy="0" in="SourceAlpha" result="shadowOffsetOuter1"></feOffset>
            <feGaussianBlur stdDeviation="1" in="shadowOffsetOuter1" result="shadowBlurOuter1"></feGaussianBlur>
            <feColorMatrix values="0 0 0 0 0.125490196   0 0 0 0 0.141176471   0 0 0 0 0.168627451  0 0 0 0.15 0" type="matrix" in="shadowBlurOuter1"></feColorMatrix>
        </filter>
        <path d="M40.9652075,2.31784289 L42.9026164,2.31784289 C44.1172579,2.31784289 44.1787421,3.54482558 44.1787421,3.79074258 C44.1787421,4.54215563 43.8405786,5.41978004 42.8869182,5.41978004 L40.9652075,5.41978004 L40.9652075,2.31784289 Z M45.9428176,9.15602691 C45.8806792,7.3702011 45.5843774,6.57845246 44.6765031,6.20957696 C45.611195,5.75352454 46.1632453,4.82450477 46.1632453,3.63330365 C46.1632453,2.14934421 45.380956,0.563244631 43.1864906,0.563244631 L39.0121006,0.563244631 L39.0121006,12.3763685 L40.9652075,12.3763685 L40.9652075,7.17502888 L42.4146667,7.17502888 C43.0020377,7.17502888 43.7934843,7.2999391 43.880478,8.38639779 C43.9164528,8.82098127 43.9347673,9.25296245 43.9511195,9.66607698 C43.9949434,10.7232598 44.0328805,11.6360153 44.348805,12.2410491 L44.4194465,12.3763685 L46.4268428,12.3763685 L46.3254591,12.0510815 C46.1148428,11.3770868 45.9585157,9.63680115 45.9428176,9.15602691 L45.9428176,9.15602691 Z" id="path-15"></path>
        <filter x="-50%" y="-50%" width="200%" height="200%" filterUnits="objectBoundingBox" id="filter-16">
            <feOffset dx="0" dy="0" in="SourceAlpha" result="shadowOffsetOuter1"></feOffset>
            <feGaussianBlur stdDeviation="1" in="shadowOffsetOuter1" result="shadowBlurOuter1"></feGaussianBlur>
            <feColorMatrix values="0 0 0 0 0.125490196   0 0 0 0 0.141176471   0 0 0 0 0.168627451  0 0 0 0.15 0" type="matrix" in="shadowBlurOuter1"></feColorMatrix>
        </filter>
        <path d="M51.5766088,7.36232915 L48.9851119,7.36232915 C49.0479044,5.44508738 49.6634013,5.27919099 50.2403069,5.27919099 C50.8741182,5.27919099 51.5288604,5.27919099 51.5766088,7.36232915 M50.3665459,3.80564073 C47.3426969,3.80564073 47.0902189,6.02019485 47.0902189,8.28744548 C47.0902189,12.0184878 48.6646088,12.5330918 50.3665459,12.5330918 C52.2719044,12.5330918 53.3746969,11.5116906 53.3910491,9.73106933 L53.3930113,9.47734545 L51.4830742,9.47734545 L51.4693384,9.71350383 C51.4327094,10.3269952 51.1161308,10.9814727 50.3351497,10.9814727 C49.6228478,10.9814727 49.0282818,10.8155763 48.9831497,8.83587941 L53.4538415,8.83587941 L53.4538415,7.91141366 C53.4538415,5.3767771 52.9371119,3.80564073 50.3665459,3.80564073" id="path-17"></path>
        <filter x="-50%" y="-50%" width="200%" height="200%" filterUnits="objectBoundingBox" id="filter-18">
            <feOffset dx="0" dy="0" in="SourceAlpha" result="shadowOffsetOuter1"></feOffset>
            <feGaussianBlur stdDeviation="1" in="shadowOffsetOuter1" result="shadowBlurOuter1"></feGaussianBlur>
            <feColorMatrix values="0 0 0 0 0.125490196   0 0 0 0 0.141176471   0 0 0 0 0.168627451  0 0 0 0.15 0" type="matrix" in="shadowBlurOuter1"></feColorMatrix>
        </filter>
        <path d="M58.7210818,8.44625061 C58.745283,9.50538519 58.5647547,10.2437868 58.1834214,10.6419381 C57.9675723,10.8676873 57.6784654,10.9815377 57.3252579,10.9815377 C56.404956,10.9815377 56.3336604,10.0590237 56.3336604,9.77537343 C56.3336604,8.55099303 57.2768553,8.45405749 58.7165031,8.44625061 L58.7210818,8.44625061 Z M60.5073962,10.2457385 L60.5073962,6.43857903 C60.5073962,4.66706585 59.5798994,3.80570578 57.6719245,3.80570578 C55.7260126,3.80570578 54.7900126,4.63974174 54.7272201,6.429471 L54.7174088,6.68970062 L56.6567799,6.68970062 L56.6312704,6.41515837 C56.5972579,6.05734263 56.6750943,5.76393373 56.8569308,5.56485806 C57.0283019,5.37749273 57.2938616,5.27925605 57.6248302,5.27925605 C57.9858868,5.27925605 58.2435975,5.3631801 58.4116981,5.53558223 C58.7073459,5.83809917 58.730239,6.4119055 58.7184654,6.9661946 C57.3697358,6.94472566 56.0380126,7.06247956 55.2289057,7.84772246 C54.7703899,8.29271513 54.5375346,8.90945934 54.5375346,9.68104019 C54.5375346,11.6002337 55.3309434,12.5331569 56.9628931,12.5331569 C57.7360252,12.5331569 58.3175094,12.3028537 58.7426667,11.8175254 L58.7426667,12.3763685 L60.7068931,12.3763685 L60.6624151,12.0875137 C60.5597233,11.4239281 60.5073962,10.803931 60.5073962,10.2457385 L60.5073962,10.2457385 Z" id="path-19"></path>
        <filter x="-50%" y="-50%" width="200%" height="200%" filterUnits="objectBoundingBox" id="filter-20">
            <feOffset dx="0" dy="0" in="SourceAlpha" result="shadowOffsetOuter1"></feOffset>
            <feGaussianBlur stdDeviation="1" in="shadowOffsetOuter1" result="shadowBlurOuter1"></feGaussianBlur>
            <feColorMatrix values="0 0 0 0 0.125490196   0 0 0 0 0.141176471   0 0 0 0 0.168627451  0 0 0 0.15 0" type="matrix" in="shadowBlurOuter1"></feColorMatrix>
        </filter>
        <polygon id="path-21" points="62.0487547 12.3765637 63.8448805 12.3765637 63.8448805 0.563439803 62.0487547 0.563439803"></polygon>
        <filter x="-50%" y="-50%" width="200%" height="200%" filterUnits="objectBoundingBox" id="filter-22">
            <feOffset dx="0" dy="0" in="SourceAlpha" result="shadowOffsetOuter1"></feOffset>
            <feGaussianBlur stdDeviation="1" in="shadowOffsetOuter1" result="shadowBlurOuter1"></feGaussianBlur>
            <feColorMatrix values="0 0 0 0 0.125490196   0 0 0 0 0.141176471   0 0 0 0 0.168627451  0 0 0 0.15 0" type="matrix" in="shadowBlurOuter1"></feColorMatrix>
        </filter>
        <polygon id="path-23" points="70.2851623 7.20606126 74.3804075 7.20606126 74.3804075 5.451463 70.2851623 5.451463 70.2851623 2.31764772 74.695678 2.31764772 74.695678 0.563049459 68.3314013 0.563049459 68.3314013 12.3761734 74.7905208 12.3761734 74.7905208 10.6215751 70.2851623 10.6215751"></polygon>
        <filter x="-50%" y="-50%" width="200%" height="200%" filterUnits="objectBoundingBox" id="filter-24">
            <feOffset dx="0" dy="0" in="SourceAlpha" result="shadowOffsetOuter1"></feOffset>
            <feGaussianBlur stdDeviation="1" in="shadowOffsetOuter1" result="shadowBlurOuter1"></feGaussianBlur>
            <feColorMatrix values="0 0 0 0 0.125490196   0 0 0 0 0.141176471   0 0 0 0 0.168627451  0 0 0 0.15 0" type="matrix" in="shadowBlurOuter1"></feColorMatrix>
        </filter>
        <path d="M85.0385761,10.9188875 C84.109117,10.9188875 84.109117,10.5252902 84.109117,10.0262998 L84.109117,5.43584922 L85.8424503,5.43584922 L85.8424503,3.96294953 L84.109117,3.96294953 L84.109117,1.86354702 L82.3129912,1.86354702 L82.3129912,3.96294953 L81.0054692,3.96294953 L81.0054692,5.19513682 C80.9145509,4.98174852 80.7987774,4.78267286 80.6372176,4.61027073 C80.1512302,4.0917632 79.3597836,3.80551061 78.4093937,3.80551061 C75.5608403,3.80551061 75.4162868,5.81578448 75.4162868,6.21848983 C75.4162868,7.71285846 76.8088403,8.3640831 77.9273308,8.88779523 C78.6775698,9.23910522 79.3859472,9.570898 79.3859472,10.0262998 C79.3859472,10.8889611 78.6043119,10.9819931 78.2674566,10.9819931 C77.326878,10.9819931 77.1973686,10.3717547 77.1973686,9.71272314 L77.1973686,9.46225213 L75.2351044,9.46225213 L75.2285635,9.70686798 C75.2056704,10.585143 75.4313308,11.2741009 75.900966,11.7529234 C76.4085384,12.2701298 77.1882113,12.5329617 78.2203623,12.5329617 C80.1433811,12.5329617 81.2455195,11.5616546 81.2455195,9.86951149 C81.2455195,8.33740956 79.8398843,7.69984698 78.7102742,7.18654404 C77.9397585,6.83718576 77.2758591,6.53466882 77.2758591,6.09357961 C77.2758591,5.49244917 77.780161,5.27906087 78.2524126,5.27906087 C78.5912302,5.27906087 78.8450164,5.36233435 79.0078843,5.52692959 C79.1714063,5.69347655 79.251205,5.95045331 79.2453182,6.29265527 L79.2400855,6.54833088 L81.1650667,6.54833088 L81.182073,6.31542536 C81.2043119,5.99469235 81.1716075,5.70323517 81.0957333,5.43584922 L82.3129912,5.43584922 L82.3129912,10.809591 C82.3129912,11.5668592 82.6655447,12.4705066 84.3452428,12.4705066 C84.6166893,12.4705066 84.8848654,12.434725 85.1438843,12.4002446 C85.3093686,12.3781251 85.4741987,12.3566562 85.639683,12.3442952 L85.8731925,12.3273803 L85.8731925,10.8271565 L85.3244126,10.8902622 C85.1916327,10.905876 85.0941736,10.9188875 85.0385761,10.9188875" id="path-25"></path>
        <filter x="-50%" y="-50%" width="200%" height="200%" filterUnits="objectBoundingBox" id="filter-26">
            <feOffset dx="0" dy="0" in="SourceAlpha" result="shadowOffsetOuter1"></feOffset>
            <feGaussianBlur stdDeviation="1" in="shadowOffsetOuter1" result="shadowBlurOuter1"></feGaussianBlur>
            <feColorMatrix values="0 0 0 0 0.125490196   0 0 0 0 0.141176471   0 0 0 0 0.168627451  0 0 0 0.15 0" type="matrix" in="shadowBlurOuter1"></feColorMatrix>
        </filter>
        <path d="M90.1818667,8.44625061 C90.2060679,9.50538519 90.0261937,10.2437868 89.6448604,10.6419381 C89.4290113,10.8676873 89.1399044,10.9815377 88.7866969,10.9815377 C87.8657409,10.9815377 87.7944453,10.0590237 87.7944453,9.77537343 C87.7944453,8.55099303 88.7376403,8.45405749 90.1772881,8.44625061 L90.1818667,8.44625061 Z M91.9688352,10.2457385 L91.9688352,6.43857903 C91.9688352,4.66706585 91.0406843,3.80570578 89.1327094,3.80570578 C87.1874516,3.80570578 86.2514516,4.63974174 86.188005,6.429471 L86.1781937,6.68970062 L88.1182189,6.68970062 L88.0927094,6.41515837 C88.0586969,6.05734263 88.1365333,5.76328315 88.3183698,5.56485806 C88.4897409,5.37749273 88.7546465,5.27925605 89.0856151,5.27925605 C89.4466717,5.27925605 89.7043824,5.3631801 89.872483,5.53558223 C90.1681308,5.83874974 90.1910239,6.4119055 90.1792503,6.9661946 C88.8305208,6.94472566 87.4987975,7.06247956 86.6896906,7.84772246 C86.2311748,8.29271513 85.9983195,8.90945934 85.9983195,9.68104019 C85.9983195,11.6002337 86.7917283,12.5331569 88.423678,12.5331569 C89.1974642,12.5331569 89.7789484,12.3022031 90.2041057,11.8175254 L90.2041057,12.3763685 L92.167678,12.3763685 L92.1232,12.0875137 C92.0211623,11.4265304 91.9688352,10.8065333 91.9688352,10.2457385 L91.9688352,10.2457385 Z" id="path-27"></path>
        <filter x="-50%" y="-50%" width="200%" height="200%" filterUnits="objectBoundingBox" id="filter-28">
            <feOffset dx="0" dy="0" in="SourceAlpha" result="shadowOffsetOuter1"></feOffset>
            <feGaussianBlur stdDeviation="1" in="shadowOffsetOuter1" result="shadowBlurOuter1"></feGaussianBlur>
            <feColorMatrix values="0 0 0 0 0.125490196   0 0 0 0 0.141176471   0 0 0 0 0.168627451  0 0 0 0.15 0" type="matrix" in="shadowBlurOuter1"></feColorMatrix>
        </filter>
        <path d="M96.4078038,10.9188875 C95.4783447,10.9188875 95.4783447,10.5252902 95.4783447,10.0262998 L95.4783447,5.43584922 L97.211678,5.43584922 L97.211678,3.96294953 L95.4783447,3.96294953 L95.4783447,1.86354702 L93.6822189,1.86354702 L93.6822189,3.96294953 L92.3746969,3.96294953 L92.3746969,5.43584922 L93.6822189,5.43584922 L93.6822189,10.809591 C93.6822189,11.5668592 94.0347723,12.4705066 95.7144704,12.4705066 C95.985917,12.4705066 96.2540931,12.434725 96.5118038,12.4002446 C96.6779421,12.3781251 96.8434264,12.3566562 97.0089107,12.3442952 L97.2424201,12.3273803 L97.2424201,10.8271565 L96.6910239,10.8902622 C96.5595522,10.905876 96.4634013,10.9188875 96.4078038,10.9188875" id="path-29"></path>
        <filter x="-50%" y="-50%" width="200%" height="200%" filterUnits="objectBoundingBox" id="filter-30">
            <feOffset dx="0" dy="0" in="SourceAlpha" result="shadowOffsetOuter1"></feOffset>
            <feGaussianBlur stdDeviation="1" in="shadowOffsetOuter1" result="shadowBlurOuter1"></feGaussianBlur>
            <feColorMatrix values="0 0 0 0 0.125490196   0 0 0 0 0.141176471   0 0 0 0 0.168627451  0 0 0 0.15 0" type="matrix" in="shadowBlurOuter1"></feColorMatrix>
        </filter>
        <path d="M99.2470692,7.36232915 C99.3098616,5.44508738 99.9247044,5.27919099 100.502264,5.27919099 C101.136075,5.27919099 101.790818,5.27919099 101.838566,7.36232915 L99.2470692,7.36232915 Z M103.715799,7.91141366 C103.715799,5.3767771 103.199069,3.80564073 100.627849,3.80564073 C97.6046541,3.80564073 97.3521761,6.02019485 97.3521761,8.28744548 C97.3521761,12.0184878 98.926566,12.5330918 100.627849,12.5330918 C102.533862,12.5330918 103.636654,11.5116906 103.653006,9.73106933 L103.654969,9.47734545 L101.745031,9.47734545 L101.731296,9.71350383 C101.694667,10.3269952 101.378088,10.9814727 100.596453,10.9814727 C99.884805,10.9814727 99.290239,10.8155763 99.2451069,8.83587941 L103.715799,8.83587941 L103.715799,7.91141366 Z" id="path-31"></path>
        <filter x="-50%" y="-50%" width="200%" height="200%" filterUnits="objectBoundingBox" id="filter-32">
            <feOffset dx="0" dy="0" in="SourceAlpha" result="shadowOffsetOuter1"></feOffset>
            <feGaussianBlur stdDeviation="1" in="shadowOffsetOuter1" result="shadowBlurOuter1"></feGaussianBlur>
            <feColorMatrix values="0 0 0 0 0.125490196   0 0 0 0 0.141176471   0 0 0 0 0.168627451  0 0 0 0.15 0" type="matrix" in="shadowBlurOuter1"></feColorMatrix>
        </filter>
    </defs>
    <g id="export-assets" stroke="none" stroke-width="1" fill="none" fill-rule="evenodd">
        <g id="homepage-hero-logo">
            <g id="logotype" transform="translate(5.000000, 5.000000)">
                <g id="sre">
                    <g id="Fill-1">
                        <use fill="black" fill-opacity="1" filter="url(#filter-2)" xlink:href="#path-1"></use>
                        <use fill="#FFFFFF" fill-rule="evenodd" xlink:href="#path-1"></use>
                    </g>
                    <g id="Fill-3">
                        <use fill="black" fill-opacity="1" filter="url(#filter-4)" xlink:href="#path-3"></use>
                        <use fill="#FFFFFF" fill-rule="evenodd" xlink:href="#path-3"></use>
                    </g>
                    <g id="Fill-5">
                        <use fill="black" fill-opacity="1" filter="url(#filter-6)" xlink:href="#path-5"></use>
                        <use fill="#FFFFFF" fill-rule="evenodd" xlink:href="#path-5"></use>
                    </g>
                </g>
                <g id="type" transform="translate(0.000000, 58.658318)">
                    <g id="Fill-7">
                        <use fill="black" fill-opacity="1" filter="url(#filter-8)" xlink:href="#path-7"></use>
                        <use fill="#FFFFFF" fill-rule="evenodd" xlink:href="#path-7"></use>
                    </g>
                    <g id="Fill-9">
                        <use fill="black" fill-opacity="1" filter="url(#filter-10)" xlink:href="#path-9"></use>
                        <use fill="#FFFFFF" fill-rule="evenodd" xlink:href="#path-9"></use>
                    </g>
                    <g id="Fill-11">
                        <use fill="black" fill-opacity="1" filter="url(#filter-12)" xlink:href="#path-11"></use>
                        <use fill="#FFFFFF" fill-rule="evenodd" xlink:href="#path-11"></use>
                    </g>
                    <g id="Fill-13">
                        <use fill="black" fill-opacity="1" filter="url(#filter-14)" xlink:href="#path-13"></use>
                        <use fill="#FFFFFF" fill-rule="evenodd" xlink:href="#path-13"></use>
                    </g>
                    <g id="Fill-15">
                        <use fill="black" fill-opacity="1" filter="url(#filter-16)" xlink:href="#path-15"></use>
                        <use fill="#FFFFFF" fill-rule="evenodd" xlink:href="#path-15"></use>
                    </g>
                    <g id="Fill-17">
                        <use fill="black" fill-opacity="1" filter="url(#filter-18)" xlink:href="#path-17"></use>
                        <use fill="#FFFFFF" fill-rule="evenodd" xlink:href="#path-17"></use>
                    </g>
                    <g id="Fill-19">
                        <use fill="black" fill-opacity="1" filter="url(#filter-20)" xlink:href="#path-19"></use>
                        <use fill="#FFFFFF" fill-rule="evenodd" xlink:href="#path-19"></use>
                    </g>
                    <g id="Fill-21">
                        <use fill="black" fill-opacity="1" filter="url(#filter-22)" xlink:href="#path-21"></use>
                        <use fill="#FFFFFF" fill-rule="evenodd" xlink:href="#path-21"></use>
                    </g>
                    <g id="Fill-23">
                        <use fill="black" fill-opacity="1" filter="url(#filter-24)" xlink:href="#path-23"></use>
                        <use fill="#FFFFFF" fill-rule="evenodd" xlink:href="#path-23"></use>
                    </g>
                    <g id="Fill-24">
                        <use fill="black" fill-opacity="1" filter="url(#filter-26)" xlink:href="#path-25"></use>
                        <use fill="#FFFFFF" fill-rule="evenodd" xlink:href="#path-25"></use>
                    </g>
                    <g id="Fill-25">
                        <use fill="black" fill-opacity="1" filter="url(#filter-28)" xlink:href="#path-27"></use>
                        <use fill="#FFFFFF" fill-rule="evenodd" xlink:href="#path-27"></use>
                    </g>
                    <g id="Fill-26">
                        <use fill="black" fill-opacity="1" filter="url(#filter-30)" xlink:href="#path-29"></use>
                        <use fill="#FFFFFF" fill-rule="evenodd" xlink:href="#path-29"></use>
                    </g>
                    <g id="Fill-27">
                        <use fill="black" fill-opacity="1" filter="url(#filter-32)" xlink:href="#path-31"></use>
                        <use fill="#FFFFFF" fill-rule="evenodd" xlink:href="#path-31"></use>
                    </g>
                </g>
            </g>
        </g>
    </g>
</svg>